<svg id="Layer_1" data-name="Layer 1" xmlns="http://www.w3.org/2000/svg" viewBox="0 0 219.01 185.64"><defs><style>.cls-1{fill:#263d5f;}.cls-2{fill:#7cbfdd;}.cls-3{fill:none;stroke:#7cbfdd;stroke-miterlimit:10;stroke-width:0.35px;}</style></defs><title>drupalcon-baltimore-color</title><path class="cls-1" d="M153.15,110.72a29.8,29.8,0,0,0,3.09-1c11.36-4.44,26.79-19,31.11-52.81-6.71,19-14.44,28-22.22,31.73,8.85-9.36,16.76-27.58,13.1-58.59-2.58,26.41-10.64,37.71-20.12,42.09,5.64-9.66,12.5-27.21-4.58-52.75,9,23.64-.46,34-8.75,39.73,13.24-25.29-9-45.4-8.92-45.19C127.7,5.91,117.75.83,106.57,0a35.91,35.91,0,0,1,4.74,69.52,38.45,38.45,0,0,1-6.9,1.21c-11.91,1-12,2.54-15.17,7.91-2.06-5.11-3.76-9.9-8.38-12.3C71.4,61.42,63,53.62,62.13,40.51a45.41,45.41,0,0,0-2.07,13.4c-10.37-9.67-5.39-22.84-5.51-24.14C44.45,41,46.89,53,48.49,59.79,43,54.52,40,45,43.42,27.11,35,46.74,36.53,60.93,40.5,69.61,36.11,65,32.89,57,32.38,42.78c-4.06,23.85,3.07,38,9.84,44.25a23.78,23.78,0,0,0,1.91,1.57c-5.54-2.57-11.06-9-15.84-23.07C31.46,87.78,41.19,99,48.6,103.15a18.34,18.34,0,0,0,7.12,2.35c2.86-6,8.15-6.37,12.05-9.88,1.94-1.74,7.29-4.63,13-6.05a65.44,65.44,0,0,0-11,6.71c-5.82,5.06-14.45,5.75-13.19,16.12,0,0-9.78,11.8-7.51,20.39a85.8,85.8,0,0,1,15.78-13.6c16.15-10.77,33.68-11.51,44.63-12.31A30.53,30.53,0,0,1,105,97.56s3.42,4.53,8.55,11.69c1.66,2.14,3.32,4.27,5,6.35,5.54,6.29,12.55,11.73,23.7,10.48,11-1.31,28-10.06,41.29-36.76C171.28,105,161.4,110.28,153.15,110.72Z"/><path class="cls-2" d="M138.07,22.22s24,41.05-23.52,49.29C114.55,71.51,143.76,63.3,138.07,22.22Z"/><path class="cls-2" d="M159.58,35.35s11.62,45-32.22,37.19C127.36,72.54,159.69,65.64,159.58,35.35Z"/><path class="cls-2" d="M175.24,55.3s1.64,30.85-27.77,23.12C147.47,78.42,166.46,81.29,175.24,55.3Z"/><path class="cls-2" d="M182,74s-4.71,22-22,18.71C160,92.7,171.6,93.28,182,74Z"/><path class="cls-2" d="M51.3,41.19S46.95,70.62,74.43,68.66C74.43,68.66,56.88,67.88,51.3,41.19Z"/><path class="cls-2" d="M40.88,47.62S35.14,81.35,69,75.45C69,75.45,47.39,76.93,40.88,47.62Z"/><path class="cls-2" d="M33.34,59.12s-2.5,25.6,22.35,20C55.69,79.1,39.72,81,33.34,59.12Z"/><path class="cls-2" d="M62,47S59.93,63.41,73.79,64.13C73.79,64.13,64.93,62.52,62,47Z"/><path class="cls-2" d="M65.09,108.06l1.12-1.22a3.08,3.08,0,0,0-2.51,1,2.61,2.61,0,0,0-.44,2.13,1.22,1.22,0,0,0,.2.31,1.25,1.25,0,0,0,1.84-.08,1.46,1.46,0,0,0,.08-2A1.12,1.12,0,0,0,65.09,108.06Z"/><path class="cls-1" d="M109.94,110.29c0-.09-7.71,2.75-11.47,4.27-4.12,1.47-8.1,5.13-5.24,9.7-.7-4.12,3.91-6.53,7.66-7.62,1.13-.38,2.18-.65,3.17-1a23.63,23.63,0,0,0-2.89,2.59c-3.09,3.09-5.12,8.1-.58,11-2.4-3.43.73-7.58,3.66-10.17,1.7-1.64,3.34-2.78,4.38-4.43a22.18,22.18,0,0,0-1.53,3.49c-1,2.86-.77,6.61,2.94,7.06C104.14,119.58,115.26,117.76,109.94,110.29Z"/><path class="cls-2" d="M47.63,175.81h1.61a4,4,0,0,1,1.24.16,2,2,0,0,1,.83.56,3.51,3.51,0,0,1,.78,1.57,11.81,11.81,0,0,1,.23,2.69,10.91,10.91,0,0,1-.26,2.62,2.87,2.87,0,0,1-.83,1.48,3.87,3.87,0,0,1-2.55.64H47.63Zm1.31,8.57a1.66,1.66,0,0,0,1.6-.72,6.38,6.38,0,0,0,.41-2.81,8.16,8.16,0,0,0-.4-3.09,1.46,1.46,0,0,0-1.45-.84h-.16Z"/><path class="cls-2" d="M57.5,175.81h1.72a2.2,2.2,0,0,1,1.59.51,2.75,2.75,0,0,1,.66,2,3.46,3.46,0,0,1-.35,1.68,1.5,1.5,0,0,1-1,.78l1.79,4.73H60.58l-1.78-4.76v4.76H57.5Zm1.31,4.3a1.39,1.39,0,0,0,1.08-.35,1.78,1.78,0,0,0,.31-1.19,3.91,3.91,0,0,0-.07-.77,1.4,1.4,0,0,0-.21-.52.84.84,0,0,0-.37-.29,1.35,1.35,0,0,0-.53-.09H58.8Z"/><path class="cls-2" d="M66.63,175.81h1.28v6.86a3.36,3.36,0,0,0,.19,1.4.8.8,0,0,0,.77.35.82.82,0,0,0,.75-.3,2.73,2.73,0,0,0,.19-1.25v-7.05H71.1v7.05a3.41,3.41,0,0,1-.48,2.15,2.27,2.27,0,0,1-1.77.64,2,2,0,0,1-1.84-.82,4.28,4.28,0,0,1-.37-2.15Z"/><path class="cls-2" d="M76.46,175.81h1.72a2.33,2.33,0,0,1,1.81.63,3,3,0,0,1,.57,2q0,1.94-1.14,2.5a4.15,4.15,0,0,1-1.65.26v4.31H76.46Zm1.31,4.29a1.52,1.52,0,0,0,1.12-.33,1.72,1.72,0,0,0,.31-1.18,2.13,2.13,0,0,0-.3-1.27,1.11,1.11,0,0,0-1-.4h-.18Z"/><path class="cls-2" d="M86.53,175.81h1l2.08,9.71h-1.3L88,183.63H86l-.37,1.89H84.41Zm1.25,6.81-.29-1.55q-.29-1.58-.47-3.37-.09.87-.23,1.77t-.33,1.9l-.24,1.25Z"/><path class="cls-2" d="M94.26,175.81h1.31v8.61h2.14v1.11H94.26Z"/><path class="cls-2" d="M106.12,176v1.18a2,2,0,0,0-.84-.25,1.37,1.37,0,0,0-.8.23,1.67,1.67,0,0,0-.55.71,4.49,4.49,0,0,0-.32,1.21,12.52,12.52,0,0,0-.1,1.73q0,3.6,1.84,3.6a2,2,0,0,0,.77-.2v1.2a2.13,2.13,0,0,1-1.06.26q-3,0-3-4.82a8.12,8.12,0,0,1,.72-3.88,2.37,2.37,0,0,1,2.21-1.27A2.26,2.26,0,0,1,106.12,176Z"/><path class="cls-2" d="M115.87,180.91a8.4,8.4,0,0,1-.57,3.66,2,2,0,0,1-1.92,1.08,2,2,0,0,1-2-1.16,9.92,9.92,0,0,1-.57-4,8.49,8.49,0,0,1,.57-3.67,2,2,0,0,1,1.94-1.08,2.07,2.07,0,0,1,1.81.84,4,4,0,0,1,.57,1.59A16.6,16.6,0,0,1,115.87,180.91Zm-1.37.14a15.51,15.51,0,0,0-.23-3.35q-.23-.83-.92-.83a.93.93,0,0,0-.93.76,13.25,13.25,0,0,0-.23,3.08,12.27,12.27,0,0,0,.24,3,.94.94,0,0,0,.92.78.92.92,0,0,0,.91-.73A9.68,9.68,0,0,0,114.5,181Z"/><path class="cls-2" d="M121,175.81h1.22l1.3,3.88a35.45,35.45,0,0,1,1,3.5q-.16-1.13-.23-2t-.08-1.72v-3.62h1.32v9.71h-1.23l-1.47-4.37q-.2-.61-.38-1.25t-.33-1.35,0-.21l-.07-.29,0,.28c0,.08,0,.14,0,.2l.07,1,.07,1.2c0,.07,0,.15,0,.25s0,.21,0,.33l.07,4.23H121Z"/><path class="cls-2" d="M138.61,179h-1.28v-.38a3.9,3.9,0,0,1,.48-2.24,1.89,1.89,0,0,1,1.62-.65q2.15,0,2.15,2.38a11.13,11.13,0,0,1-1.6,4.63l-.77,1.45,0,.08-.09.18h2.4v1.12H137.2l.45-1,.92-1.92q.5-1.06.83-1.79t.5-1.21a4.94,4.94,0,0,0,.34-1.63q0-1.21-.84-1.21t-.8,1.5V179Z"/><path class="cls-2" d="M150.78,180.74a10.24,10.24,0,0,1-.5,3.78,1.84,1.84,0,0,1-3.39,0,15.11,15.11,0,0,1,0-7.69,1.84,1.84,0,0,1,3.33-.14A9.68,9.68,0,0,1,150.78,180.74Zm-1.33,0a16.3,16.3,0,0,0-.19-3q-.19-.84-.69-.84t-.69.83a23.85,23.85,0,0,0,0,6q.19.83.69.83t.68-.82A14.48,14.48,0,0,0,149.44,180.74Z"/><path class="cls-2" d="M155.72,175.81h2.21v9.71h-1.25v-8.6h-1Z"/><path class="cls-2" d="M163.55,175.81h4.34l-2.94,9.71h-1.4l2.7-8.61h-2.7Z"/><line class="cls-3" x1="38.94" y1="181.75" y2="181.75"/><line class="cls-3" x1="219.01" y1="181.75" x2="176.24" y2="181.68"/><path class="cls-1" d="M3.48,151.58c0-4.85,0-5.78-.07-6.83,0-1.35-.5-1.88-1.45-2l-1.22-.1c-.5,0-.59-.16-.59-.33s.26-.33.66-.33c2,0,3.66.1,5.28.1,2.18,0,4.13-.1,5.41-.1,7,0,8.28,3.23,8.28,5.08,0,2.67-1.85,4.39-4,5.51,3.47,1.06,6.4,3.17,6.4,7.16,0,3.66-3.43,7.29-10,7.29-1.22,0-5.12-.2-6.11-.2-1.45,0-3,.1-4.79.1-.46,0-.69-.1-.69-.33s.16-.33.66-.33a6.09,6.09,0,0,0,1-.13c.59-.1,1-.59,1.06-1.82.13-1.82.2-3.73.2-7.89Zm5.71,5.61c0,1.58,0,3.89.07,5.58.07,1.06.2,1.49.86,1.82a4.23,4.23,0,0,0,2.18.53c1.72,0,3.76-1.19,3.76-4.49a6.76,6.76,0,0,0-1.95-5.08A4.81,4.81,0,0,0,11,154.28a13.58,13.58,0,0,0-1.65,0c-.13,0-.2.07-.2.23Zm0-5.25c0,.26.13.3.3.33a15.34,15.34,0,0,0,2.08.13,3.12,3.12,0,0,0,2-.53,4,4,0,0,0,1.09-3.13c0-2.67-1.32-4.92-3.93-4.92a3.52,3.52,0,0,0-1.19.17c-.2.07-.33.13-.33.59Z"/><path class="cls-1" d="M31.37,160.13c-.16,0-.23.07-.3.23l-1,2.71a7.38,7.38,0,0,0-.53,2.11c0,.63.3.92,1,1,.36.07.89.1,1.16.13.5,0,.59.17.59.33s-.26.33-.69.33c-1.48,0-2.61-.1-4.36-.1-.36,0-2.54.1-4.19.1-.46,0-.66-.13-.66-.33s.23-.33.63-.33a9.38,9.38,0,0,0,1.06-.13c1.16-.23,1.82-1.25,2.51-2.84l8.81-19.93c.63-1.42,1-1.92,1.35-1.92s.63.46,1.19,1.65c.86,1.85,6.4,14.49,8.65,19.51,1.12,2.57,1.85,3.37,3,3.53a6.63,6.63,0,0,0,1.06.13c.43,0,.63.13.63.33s-.23.33-.86.33c-3.23,0-7-.07-9.11-.1-.53,0-.73-.1-.73-.3s.16-.33.46-.4.5-.3.4-.59l-2.21-5.25a.28.28,0,0,0-.26-.2Zm6.6-2.64c.2,0,.2-.1.17-.17l-2.9-7.06c-.1-.23-.17-.17-.23,0l-2.8,7.06c0,.1,0,.17.13.17Z"/><path class="cls-1" d="M60,157.42c0,3.33-.1,5.71.46,6.4s1.09.79,3.83.79c1.82,0,2.87,0,3.8-.53s1.35-1.22,1.72-2.77c.1-.36.17-.63.43-.63s.26.17.26.63a26.83,26.83,0,0,1-.69,4.85c-.26.86-.53.89-1.85.89-4.55,0-7.62-.2-11.12-.2-1.55,0-3.33.1-5.15.1-.46,0-.73-.07-.73-.36s.2-.3.66-.3.76-.07,1.12-.13c1.19-.2,1.22-.79,1.32-3.43.07-1.32.1-3.3.1-5.35v-5.81c0-5.38,0-6-.1-7s-.3-1.49-1.12-1.72a6.17,6.17,0,0,0-1.29-.17c-.36,0-.69-.07-.69-.33s.33-.33,1-.33c1.88,0,3.6.1,4.88.1.3,0,4.39-.1,5.58-.1.59,0,.79.1.79.3s-.33.36-.79.36a8.5,8.5,0,0,0-1.12.13c-.89.17-1.12.79-1.19,1.95s-.1,1.72-.1,7.16Z"/><path class="cls-1" d="M83.37,157.39c0,2.57,0,5.64.17,7,.07.86.3,1.55,1.29,1.72.43.07.83.1,1.42.17s.66.13.66.36-.17.3-.76.3c-2.24,0-5.45-.1-6-.1s-3.76.1-4.85.1c-.53,0-.76-.07-.76-.33s.26-.33.66-.33.69-.07,1.06-.13c.73-.13,1-.86,1.06-1.82.13-1.39.2-3.76.2-7V144.45c-1.29,0-3.33,0-5,.07-1.85.1-2.57.53-3,1.68a6.82,6.82,0,0,0-.3.76c-.07.26-.17.53-.4.53s-.3-.26-.26-.66c.13-1.35.49-3.14.73-4.39.07-.5.16-.83.36-.83a9.7,9.7,0,0,1,1.12.26,25.49,25.49,0,0,0,3.66.23H88.82A13.63,13.63,0,0,0,90.9,142a8.46,8.46,0,0,1,1-.2c.3,0,.33.2.33,1,0,.46-.2,3.53-.23,4.36,0,.46-.13.66-.33.66s-.33-.2-.36-.59,0-.5-.07-.66c-.13-1-.63-1.82-2.57-1.95-1.09-.1-2.81-.16-5.31-.16Z"/><path class="cls-1" d="M97.7,151.58c0-5.12,0-6.07-.1-7.13s-.43-1.52-1.16-1.65a5.6,5.6,0,0,0-1-.13c-.4,0-.63-.13-.63-.36s.16-.3.73-.3c1.32,0,4.55.1,4.82.1s4.19-.1,5.38-.1c.56,0,.73.13.73.33s-.3.33-.63.33-.53,0-1,.1c-.86.17-1.19.59-1.25,1.78s-.1,1.91-.1,7v5.81c0,2.61,0,5.68.17,7.06.07.86.26,1.45,1.25,1.68a11,11,0,0,0,1.45.17c.56,0,.69.13.69.33s-.17.33-.69.33c-2.24,0-5.78-.1-6.07-.1s-3.63.1-4.75.1c-.53,0-.79-.07-.79-.33s.26-.33.66-.33.66-.07,1-.13c.69-.1.92-.83,1-1.78.13-1.39.2-3.76.2-7Z"/><path class="cls-1" d="M139.64,162.7c.26,2.15.59,3,1.68,3.3a9.52,9.52,0,0,0,1.88.3c.43,0,.63.1.63.33s-.26.33-.79.33c-2.74,0-5.41,0-9.17-.2-.63,0-.76-.23-.76-.4s.13-.26.36-.33c.53-.2.56-.4.43-1.88l-1.19-11.82-6.8,12.74c-.89,1.68-1.09,1.88-1.35,1.88s-.56-.33-1.49-1.78c-1.16-1.85-3.17-5.61-4.42-7.72-.56-1-2-3.66-2.64-4.79l-1,9.31a25.34,25.34,0,0,0-.13,2.64c0,1,.33,1.35,1.16,1.52a9,9,0,0,0,1.22.17c.5,0,.59.1.59.3s-.13.36-.66.36c-1.45,0-3.27-.1-4.26-.1s-2.57.1-3.8.1c-.33,0-.73,0-.73-.33s.2-.33.66-.33c.26,0,.63,0,1-.1,1-.2,1.29-1,1.62-3.13l3-20.3c.13-1,.36-1.29.69-1.29s.59.33,1.29,1.35l9.44,15.81,9-16c.53-.86.79-1.19,1.12-1.19s.53.46.63,1.29Z"/><path class="cls-1" d="M143.27,154.58c0-6.6,4.42-13,14.13-13,8.38,0,13.63,5.61,13.63,12.31,0,7.69-5.21,13.57-13.86,13.57C147.43,167.42,143.27,160.42,143.27,154.58Zm21.16.73c0-5.48-2.28-11.72-8.12-11.72-3,0-6.44,1.68-6.44,9.51,0,6.24,2.61,12.21,8.28,12.21C160.2,165.31,164.42,164.42,164.42,155.31Z"/><path class="cls-1" d="M175.48,151.58c0-5.12-.07-5.78-.1-6.83-.07-1.35-.46-1.78-1.25-1.95a12.75,12.75,0,0,0-1.32-.13c-.4,0-.59-.16-.59-.36s.23-.3.73-.3c1.42,0,4.59.1,5,.1.63,0,3.8-.1,5.31-.1,3.1,0,5.28.3,6.73,1.12a5.61,5.61,0,0,1,3,5c0,2.77-1.58,4.88-4.42,6.63,2,2.91,4.42,6.44,6.44,8.75,1.75,1.95,2.54,2.51,3.47,2.64.36.07.56.07.82.1s.56.13.56.33-.33.33-.66.33h-3c-3.4,0-4.85-.33-6-1.09s-2.11-2-3.4-4.12c-1.52-2.51-2.28-3.86-2.87-4.75a.52.52,0,0,0-.4-.2h-2.18c-.16,0-.26.07-.26.26v1.68a49.63,49.63,0,0,0,.16,5.54c.07.86.3,1.58,1.29,1.82a8.17,8.17,0,0,0,1.49.2c.53,0,.59.17.59.36s-.23.3-.69.3c-2.21,0-5.81-.1-6-.1-.4,0-3.6.1-4.72.1-.5,0-.66-.1-.66-.33s.23-.33.59-.33.76-.07,1.12-.13c.66-.16.92-.76,1-1.88.13-1.39.16-3.7.16-6.9Zm5.68,2.21a.48.48,0,0,0,.3.5,6,6,0,0,0,2.54.43,3.3,3.3,0,0,0,2.08-.53c.69-.53,1.29-1.95,1.29-4.16,0-4.69-3-5.91-4.69-5.91a4.5,4.5,0,0,0-1.32.13c-.13.07-.2.1-.2.36Z"/><path class="cls-1" d="M202.07,151.58c0-5.38,0-6-.1-7.1s-.36-1.52-1.19-1.72c-.3-.07-.76-.07-1.09-.1s-.59-.16-.59-.36.2-.3.73-.3c1.88,0,3.47.1,4.92.1l9.31,0a11.68,11.68,0,0,0,1.78-.13,2.39,2.39,0,0,1,.53-.13c.16,0,.2.13.2.3s-.07.5-.17,1.45c-.1.66-.16,1.81-.26,3.53,0,.26-.13.46-.33.46s-.3-.16-.33-.46a3.89,3.89,0,0,0-.17-1.16c-.16-.76-.59-1.19-2.18-1.32-1.09-.1-4-.16-5-.16-.2,0-.26.1-.26.33V152c0,.23,0,.4.26.4.92,0,3.6,0,4.79,0,1.62-.07,2-.17,2.41-.76.2-.3.3-.43.46-.43s.2.2.2.4-.16,1.52-.26,2.81c0,.76,0,2.38,0,2.74s-.1.63-.3.63-.3-.23-.36-.53l-.1-.76c-.13-1-.59-1.52-2.21-1.62-.92-.07-3.63-.13-4.65-.13-.16,0-.2.17-.2.43v2.28c0,1.12,0,3.07,0,4.32,0,2.31.5,2.84,4.16,2.84a9.16,9.16,0,0,0,3.07-.4c.92-.36,1.32-1.09,1.62-2.61q.1-.59.4-.59c.26,0,.3.33.3.73a27,27,0,0,1-.53,4.42c-.23.86-.46.89-1.68.89-4.55,0-7-.2-10.5-.2-1.55,0-2.94.1-4.75.1-.59,0-.79-.1-.79-.33s.16-.33.66-.33a6.7,6.7,0,0,0,1-.13c.92-.13,1.06-1.39,1.12-3.47.07-1.32.1-3.27.1-5.31Z"/></svg>